
<svg xmlns="http://www.w3.org/2000/svg" viewBox="0 0 24 24">
    <path d="M 10.5 3 C 10.116117 3 9.7616432 3.1446068 9.46875 3.4375 C 8.8829638 4.0232862 8.8829636 4.9767136 9.46875 5.5625 C 10.054536 6.1482864 10.976714 6.1482862 11.5625 5.5625 C 12.148286 4.9767137 12.148286 4.0232864 11.5625 3.4375 C 11.269607 3.1446068 10.883883 3 10.5 3 z M 16.5 4 C 16.116117 4 15.730393 4.1446068 15.4375 4.4375 C 14.851714 5.0232863 14.851714 5.9767136 15.4375 6.5625 C 16.023286 7.1482864 16.976714 7.1482863 17.5625 6.5625 C 18.148286 5.9767137 18.148286 5.0232864 17.5625 4.4375 C 17.269607 4.1446068 16.883883 4 16.5 4 z M 5.5 5 C 5.1161165 5 4.7303932 5.1446068 4.4375 5.4375 C 3.8517136 6.0232864 3.8517136 6.9767136 4.4375 7.5625 C 5.0232864 8.1482864 5.9767136 8.1482864 6.5625 7.5625 C 7.1482864 6.9767136 7.1482864 6.0232864 6.5625 5.4375 C 6.2696068 5.1446068 5.8838835 5 5.5 5 z M 19 9 C 18.488155 9 17.984274 9.2032259 17.59375 9.59375 C 16.812702 10.374798 16.812701 11.625201 17.59375 12.40625 C 18.374798 13.187298 19.625202 13.187298 20.40625 12.40625 C 21.187298 11.625202 21.187298 10.374798 20.40625 9.59375 C 20.015726 9.2032257 19.511845 9 19 9 z M 4 11 C 3.7440777 11 3.4765121 11.085988 3.28125 11.28125 C 2.8907257 11.671774 2.8907255 12.328226 3.28125 12.71875 C 3.6717745 13.109274 4.3282257 13.109274 4.71875 12.71875 C 5.1092743 12.328226 5.1092745 11.671774 4.71875 11.28125 C 4.5234878 11.085988 4.2559223 11 4 11 z M 16.5 15 C 15.860194 15 15.206905 15.230595 14.71875 15.71875 C 13.742439 16.695061 13.742439 18.304939 14.71875 19.28125 C 15.695061 20.257561 17.304939 20.257561 18.28125 19.28125 C 19.257561 18.304939 19.257561 16.695061 18.28125 15.71875 C 17.793095 15.230595 17.139806 15 16.5 15 z M 6 16 C 5.7440777 16 5.4765121 16.085988 5.28125 16.28125 C 4.8907257 16.671774 4.8907255 17.328226 5.28125 17.71875 C 5.6717745 18.109274 6.3282257 18.109274 6.71875 17.71875 C 7.1092743 17.328226 7.1092745 16.671774 6.71875 16.28125 C 6.5234878 16.085988 6.2559223 16 6 16 z M 11 18 C 10.744078 18 10.476512 18.085988 10.28125 18.28125 C 9.8907255 18.671774 9.8907255 19.328226 10.28125 19.71875 C 10.671774 20.109274 11.328226 20.109274 11.71875 19.71875 C 12.109274 19.328226 12.109274 18.671774 11.71875 18.28125 C 11.523488 18.085988 11.255922 18 11 18 z"/>
</svg>
